#!OML:ASF E:/inclinewalkrobotboard/Project1/Captureday1/Session1/subject1.ASF
:FULLY-SPECIFIED
:DEGREES
101
root 0 0 0 1.4270088910877354 -3.5400253394476153 1.8891727822163145
lowerback 11.967083009061337 0.8935865435707051 -0.09647246788938058
upperback -4.434622532104781 1.1203398175529984 -0.6294147410432637
thorax -11.5544255402707 0.5146209922357479 -0.8697682912556469
lowerneck -6.095366724553792 1.6529241580737064 4.624311991026234
upperneck 18.447409423792543 3.157102292474488 -8.26974030408629
head 6.779595301392526 1.1635368136173927 -3.1892239185953124
rclavicle -1.7437775121756588E-16 -9.704714504801598E-16
rhumerus 22.22607963924571 15.949601262881812 -46.54159044025428
rradius 74.31248126197883
rwrist 27.89209891328483
rhand -34.85613614131308 -59.760478715845345
rfingers 7.12502
rthumb -8.016058979640214 -89.57300635461536
lclavicle -1.7273707085425132E-16 -9.48978329757883E-16
lhumerus 22.793167789113053 -12.79565366655418 43.632068853530015
lradius 71.32064138005128
lwrist -23.63678918691777
lhand -45.33658845241984 -73.19605780371306
lfingers 7.12502
lthumb -18.093826162586467 -43.97797374414954
rfemur -25.58729723586613 -2.1469332214011434 16.698442699152583
rtibia 54.68144808281025
rfoot -27.30662178350989 -16.45756248863852
rtoes -17.65965437769435
lfemur -21.808964270945538 1.233428081309304 -18.179376197334836
ltibia 48.65007691637642
lfoot -23.736006453878343 -3.60473185558911
ltoes -15.42612271031394
102
root 0 0 0 1.427151130918797 -3.5401748114939746 1.8891534716154543
lowerback 11.967125625300055 0.8936720938122917 -0.09634911668390123
upperback -4.4348012714806 1.1204581739352975 -0.629493798805219
thorax -11.554641679715001 0.5146764369194142 -0.8699408633851714
lowerneck -6.095028681934846 1.6530623192466167 4.624550514879061
upperneck 18.447371243880436 3.15732200692645 -8.270021704014018
head 6.779524414642902 1.1636288871258333 -3.189328901136825
rclavicle -1.7433804193572173E-16 -9.70459596339271E-16
rhumerus 22.227195831618822 15.95032638582049 -46.54093023738074
rradius 74.31352651702004
rwrist 27.892604669616773
rhand -34.8565084920287 -59.76224889508964
rfingers 7.12502
rthumb -8.016426667326156 -89.57474700204665
lclavicle -1.7276730249636723E-16 -9.490078559041032E-16
lhumerus 22.791932405250602 -12.79534018990923 43.63292179022929
lradius 71.31966918629969
lwrist -23.636142697647568
lhand -45.3361724868669 -73.19390706265463
lfingers 7.12502
lthumb -18.093441707535636 -43.975919929391935
rfemur -25.593022901001902 -2.149660233127986 16.694395628773997
rtibia 54.68780096393674
rfoot -27.313695102666742 -16.461419804579787
rtoes -17.66774988287899
lfemur -21.802691704760022 1.2318427667923368 -18.180559646794546
ltibia 48.641129469338836
lfoot -23.729189803063765 -3.6041827079332354
ltoes -15.4207569968586
103
root 0 0 0 1.4263991915000274 -3.53801428557063 1.89127502133857
lowerback 11.966830302675579 0.8924003734137438 -0.09922867276033387
upperback -4.433742015240554 1.1184603045542947 -0.629104284995511
thorax -11.553467456830381 0.5137657365478387 -0.8675768106613716
lowerneck -6.096761859239098 1.6525653971104604 4.623009474790421
upperneck 18.447450194175623 3.1564124741202186 -8.268653601277752
head 6.7798005274670885 1.1632535597508258 -3.188680208846556
rclavicle -1.7495234509251508E-16 -9.70696512829352E-16
rhumerus 22.2142774627412 15.9423498332157 -46.54906674478764
rradius 74.30217527067849
rwrist 27.88677766300422
rhand -34.85233018161253 -59.74329716913125
rfingers 7.12502
rthumb -8.012312880237397 -89.55591786810231
lclavicle -1.7320214648316455E-16 -9.48342997017605E-16
lhumerus 22.789839302700646 -12.79457583700166 43.63461888289863
lradius 71.31784413045577
lwrist -23.63461538873176
lhand -45.33538470603292 -73.18856400879771
lfingers 7.12502
lthumb -18.092387810135072 -43.97190176617353
rfemur -25.581738474062576 -2.144137720659196 16.702551054478413
rtibia 54.67490930036589
rfoot -27.299166551558006 -16.454082132426727
rtoes -17.651674676955093
lfemur -21.816134041806954 1.23534407610118 -18.178294458575415
ltibia 48.66038059420416
lfoot -23.743602094302314 -3.605551035934705
ltoes -15.432640915615483
104
root 0 0 0 1.4268216308921824 -3.5393298888437057 1.8899491809737137
lowerback 11.967021976254756 0.8931819482585166 -0.09743231568737976
upperback -4.43435968129754 1.1196996614596024 -0.629336752842521
thorax -11.554155679098724 0.5143317068697202 -0.8690510235612238
lowerneck -6.095738481538006 1.6528435889122377 4.623941209854276
upperneck 18.447412354256006 3.1569245222465656 -8.26946077451573
head 6.77964467391585 1.1634625554397093 -3.189074894156307
rclavicle -1.7444721371697006E-16 -9.704786844883529E-16
rhumerus 22.223971397610022 15.948242219290092 -46.542907607356
rradius 74.31052308473085
rwrist 27.89113042281978
rhand -34.8554622598541 -59.757200874735446
rfingers 7.12502
rthumb -8.015384942014686 -89.56970726247022
lclavicle -1.7273171919534308E-16 -9.490019255779052E-16
lhumerus 22.793153161962504 -12.795671087298956 43.632037399635095
lradius 71.32064822995822
lwrist -23.6368161048169
lhand -45.336609797119465 -73.1960785108824
lfingers 7.12502
lthumb -18.09385890282563 -43.9780119267669
rfemur -25.58360344359223 -2.1451766639533245 16.701071573247688
rtibia 54.67744674787217
rfoot -27.301858538315113 -16.454970373044304
rtoes -17.65434433883826
lfemur -21.811902655307293 1.2342216766924217 -18.178892641233276
ltibia 48.65456243105323
lfoot -23.739346046760232 -3.6051345770877985
ltoes -15.428950753636716
